<svg width="37" height="35" viewBox="0 0 37 35" fill="none" xmlns="http://www.w3.org/2000/svg">
<path d="M37 7.38079C37 6.29032 36.561 5.2445 35.7796 4.47342C34.9982 3.70234 33.9385 3.26915 32.8334 3.26915H28.7317V1.6519C28.7317 1.40958 28.6341 1.17717 28.4605 1.00582C28.2868 0.834469 28.0513 0.738205 27.8058 0.738205C27.5602 0.738205 27.3247 0.834469 27.1511 1.00582C26.9774 1.17717 26.8799 1.40958 26.8799 1.6519V3.26915H10.9173V1.6519C10.9173 1.40958 10.8197 1.17717 10.6461 1.00582C10.4725 0.834469 10.237 0.738205 9.99139 0.738205C9.74583 0.738205 9.51032 0.834469 9.33668 1.00582C9.16304 1.17717 9.06549 1.40958 9.06549 1.6519V3.26915H4.96374C3.8587 3.26915 2.79892 3.70234 2.01754 4.47342C1.23616 5.2445 0.79718 6.29032 0.79718 7.38079V30.1502C0.79718 31.2406 1.23616 32.2864 2.01754 33.0575C2.79892 33.8286 3.8587 34.2618 4.96374 34.2618H32.8334C33.9385 34.2618 34.9982 33.8286 35.7796 33.0575C36.561 32.2864 37 31.2406 37 30.1502V7.38079ZM35.1482 30.1547C35.1482 30.4547 35.0883 30.7517 34.972 31.0289C34.8556 31.306 34.6851 31.5578 34.4702 31.7699C34.2553 31.982 34.0001 32.1503 33.7192 32.2651C33.4384 32.3799 33.1374 32.439 32.8334 32.439H4.96374C4.65976 32.439 4.35876 32.3799 4.07792 32.2651C3.79708 32.1503 3.54191 31.982 3.32696 31.7699C3.11202 31.5578 2.94151 31.306 2.82519 31.0289C2.70886 30.7517 2.64899 30.4547 2.64899 30.1547V14.2792H35.1482V30.1547ZM35.1482 12.4564H2.64899V7.38079C2.64899 6.77497 2.89286 6.19397 3.32696 5.76559C3.76106 5.33721 4.34983 5.09655 4.96374 5.09655H9.07012V7.62749C9.07012 7.86982 9.16767 8.10222 9.34131 8.27357C9.51495 8.44492 9.75046 8.54119 9.99603 8.54119C10.2416 8.54119 10.4771 8.44492 10.6507 8.27357C10.8244 8.10222 10.9219 7.86982 10.9219 7.62749V5.09655H26.8799V7.62749C26.8799 7.86982 26.9774 8.10222 27.1511 8.27357C27.3247 8.44492 27.5602 8.54119 27.8058 8.54119C28.0513 8.54119 28.2868 8.44492 28.4605 8.27357C28.6341 8.10222 28.7317 7.86982 28.7317 7.62749V5.09655H32.8334C33.4473 5.09655 34.0361 5.33721 34.4702 5.76559C34.9043 6.19397 35.1482 6.77497 35.1482 7.38079V12.4564Z" fill="white"/>
</svg>
